<?xml version="1.0" encoding="utf-8"?>
<!-- Generator: Adobe Illustrator 22.0.0, SVG Export Plug-In . SVG Version: 6.00 Build 0)  -->
<svg version="1.1" id="Layer_1" xmlns="http://www.w3.org/2000/svg" xmlns:xlink="http://www.w3.org/1999/xlink" x="0px" y="0px"
	 viewBox="0 0 115 26" style="enable-background:new 0 0 115 26;" xml:space="preserve">
<style type="text/css">
	.st0{fill:#FF893C;}
</style>
<title>Clevertap_logo_White</title>
<desc>Created with Sketch.</desc>
<g id="Page-1">
	<g id="Clevertap_logo_White">
		<path id="Shape" d="M13.6,13.3h2.2v0.8c0,2.7-0.4,4.3-1.3,5s-3.1,1-6.7,1c-3.2,0-5.3-0.6-6.1-1.7c-0.9-1.2-1.3-3.9-1.3-8.2
			c0-3.4,0.1-5.5,0.3-6.4s0.8-1.6,1.7-2.3c1.1-0.8,3.4-1.2,7.1-1.2c2.4,0,4.1,0.4,4.9,1.2s1.3,2.3,1.3,4.5v0.5h-2.1V5.7
			c0-1.6-0.3-2.6-0.8-3S11,2,9.2,2c-3.1,0-5,0.3-5.7,0.8s-1,2-1,4.4c0,5.5,0.2,8.7,0.7,9.6c0.4,0.9,2,1.4,4.7,1.4
			c2.6,0,4.1-0.2,4.8-0.6c0.6-0.4,1-1.4,1-3.1L13.6,13.3z"/>
		<polygon id="Shape_1_" points="20.1,0.4 20.1,19.9 18.1,19.9 18.1,0.4 		"/>
		<path id="Shape_2_" d="M32.9,15.7h2v0.5c0,1.4-0.4,2.4-1.3,3c-0.8,0.6-2.3,0.8-4.5,0.8c-2.5,0-4.1-0.5-4.9-1.4
			c-0.8-0.9-1.2-2.8-1.2-5.8c0-2.7,0.4-4.5,1.2-5.5C25.1,6.5,26.6,6,28.9,6c2.5,0,4.1,0.4,4.9,1.2s1.2,2.5,1.2,5.1v1.1h-9.7
			c0,2.2,0.2,3.5,0.7,4.1c0.4,0.6,1.5,0.9,3.2,0.9c1.6,0,2.6-0.1,3.1-0.4c0.5-0.3,0.7-0.9,0.7-1.8L32.9,15.7z M32.9,11.9v-0.6
			c0-1.5-0.2-2.4-0.7-2.9c-0.5-0.4-1.5-0.7-3.1-0.7c-1.6,0-2.6,0.3-3.1,0.8c-0.5,0.5-0.7,1.7-0.7,3.4L32.9,11.9z"/>
		<polygon id="Shape_3_" points="48,6.2 43.5,19.9 40.7,19.9 36.2,6.2 38.2,6.2 40.6,13.6 41.4,16 41.7,17.1 42.1,18.3 42.1,18.3 
			42.5,17.1 42.8,16 43.5,13.7 45.8,6.2 		"/>
		<path id="Shape_4_" d="M59,15.7h2v0.5c0,1.4-0.4,2.4-1.3,3c-0.8,0.6-2.3,0.8-4.5,0.8c-2.5,0-4.1-0.5-4.9-1.4
			c-0.8-0.9-1.2-2.8-1.2-5.8c0-2.7,0.4-4.5,1.2-5.5C51.2,6.5,52.7,6,55,6c2.5,0,4.1,0.4,4.9,1.2S61,9.7,61,12.3v1.1h-9.7
			c0,2.2,0.2,3.5,0.7,4.1c0.4,0.6,1.5,0.9,3.2,0.9c1.6,0,2.6-0.1,3.1-0.4c0.5-0.3,0.7-0.9,0.7-1.8L59,15.7z M59,11.9v-0.6
			c0-1.5-0.2-2.4-0.7-2.9s-1.5-0.7-3.1-0.7c-1.6,0-2.6,0.3-3.1,0.8s-0.7,1.7-0.7,3.4L59,11.9z"/>
		<path id="Shape_5_" d="M64.3,6.2h2l-0.2,1.6l0,0c0.8-1.3,2.1-1.9,3.9-1.9c2.5,0,3.7,1.3,3.7,3.9v0.9h-1.9l0-0.3c0-0.4,0-0.6,0-0.7
			c0-1.4-0.8-2.1-2.3-2.1c-2.2,0-3.3,1.4-3.3,4.1v8.2h-2L64.3,6.2z"/>
		<polygon id="Shape_6_" class="st0" points="83.2,3.7 83.2,19.9 79.6,19.9 79.6,3.7 74,3.7 74,0.4 89,0.4 89,3.7 		"/>
		<path id="Shape_7_" class="st0" d="M90.4,10.2h-3.3c0-1.6,0.4-2.7,1.1-3.3c0.8-0.6,2.2-0.8,4.5-0.8c2.4,0,4.1,0.3,4.9,1
			c0.9,0.7,1.3,2,1.3,3.9v8.9h-3.2l0.2-1.9h-0.1c-0.6,1.4-2,2.1-4.3,2.1c-3.3,0-4.9-1.4-4.9-4.2s1.7-4.2,5-4.3c2.2,0,3.6,0.5,4,1.6
			h0.1v-2.2c0-1.1-0.2-1.8-0.5-2.1c-0.4-0.3-1.1-0.5-2.3-0.5C91.2,8.3,90.4,8.9,90.4,10.2z M92.6,13.8c-1.8,0-2.7,0.6-2.7,1.9
			c0,0.9,0.2,1.5,0.6,1.7s1.2,0.4,2.4,0.4c2,0,2.9-0.7,2.9-2S94.7,13.8,92.6,13.8L92.6,13.8z"/>
		<path id="Shape_8_" class="st0" d="M102.1,6.2h3.3l-0.1,2h0.1c0.8-1.5,2.2-2.2,4.4-2.2c2,0,3.3,0.5,4,1.5c0.7,1,1.1,2.8,1.1,5.4
			c0,2.7-0.4,4.6-1.1,5.6s-2.1,1.5-4.1,1.5c-2.1,0-3.5-0.7-4.1-2.1h-0.1v7.8h-3.4L102.1,6.2z M108.5,8.6c-1.2,0-2,0.3-2.4,0.8
			c-0.4,0.6-0.6,1.8-0.6,3.6c0,1.8,0.2,2.9,0.6,3.5c0.4,0.6,1.2,0.9,2.5,0.9c1.3,0,2.1-0.3,2.4-0.8c0.4-0.6,0.6-1.7,0.6-3.6
			c0-1.9-0.2-3.1-0.6-3.6C110.6,8.9,109.8,8.6,108.5,8.6L108.5,8.6z"/>
	</g>
</g>
</svg>
