<svg xmlns="http://www.w3.org/2000/svg" width="180" height="38" viewBox="0 0 180 38">
    <defs>
        <linearGradient id="a" x1="0%" y1="50%" y2="50%">
            <stop offset="0%" stop-color="#EE2224"/>
            <stop offset="100%" stop-color="#F16521"/>
        </linearGradient>
    </defs>
    <path fill="url(#a)" fill-rule="evenodd" d="M280.827 85c-.087 0-.174.001-.26.003-1.86.074-3.13.56-3.88 1.484-1.098 1.354-1.078 3.642-1.057 6.064.003.344.006.693.006 1.044v.257h-1.89v4.097h1.89V114.9h4.833V97.95h1.487c2.112 0 3.663-1.708 3.768-4.098h-5.255v-2.75c0-1.294.835-2.131 2.126-2.131 1.026 0 2.26.566 2.84 1.652.845-1.078 1.067-2.152.64-3.124-.657-1.495-2.766-2.499-5.248-2.499zm15.899 8.31c-1.635.078-3.083 1.206-3.977 3.097l-.485 1.025V93.81h-4.093v21.09h4.832v-8.467c0-1.096 0-2.46.083-3.797.27-3.094 2.611-4.759 4.676-4.759 1.116 0 2.006.489 2.453 1.326.797-.778 1.061-2.068.652-3.319-.529-1.618-1.945-2.585-3.787-2.585-.115 0-.234.004-.354.011zm-29.793 0c-1.635.078-3.084 1.206-3.977 3.097l-.485 1.025V93.81h-4.094v21.09h4.833v-8.467c0-1.096 0-2.46.083-3.797.27-3.094 2.612-4.759 4.677-4.759 1.114 0 2.006.489 2.452 1.326.797-.778 1.062-2.068.653-3.319-.53-1.618-1.945-2.585-3.789-2.585-.115 0-.233.004-.353.011zm-30.11 15.8c1.68 3.97 5.241 6.246 9.77 6.246 3.978 0 6.805-1.392 8.869-4.377l-3.886-1.908c-1.348 1.325-3.17 2.082-5.03 2.082a6.73 6.73 0 0 1-1.19-.106c-2.858-.488-4.945-3.493-4.854-6.99.081-3.7 2.764-6.63 6.241-6.814.11-.005.22-.009.328-.009 2.645 0 4.564 1.786 4.632 3.389.057 1.333-1.108 2.234-3.116 2.41-.615.061-1.35.125-2.094.125-1.706 0-3.025-.354-4.016-1.082-.377 1.146-.284 2.186.275 3.025.815 1.22 2.547 1.92 4.756 1.92.999 0 2.067-.142 3.173-.422 4.265-1.064 5.436-4.279 5.144-6.709-.38-3.169-3.29-6.58-8.78-6.58-3.361 0-6.257 1.138-8.157 3.202-3.008 3.188-3.856 8.368-2.065 12.599zm-67.995-12.598c-3.009 3.188-3.857 8.368-2.065 12.6 1.68 3.968 5.241 6.244 9.768 6.244 3.98 0 6.806-1.392 8.87-4.377l-3.886-1.908c-1.347 1.325-3.17 2.082-5.028 2.082-.402 0-.802-.035-1.191-.106-2.858-.488-4.946-3.493-4.855-6.99.082-3.7 2.765-6.63 6.242-6.814.11-.005.22-.009.327-.009 2.645 0 4.564 1.786 4.632 3.389.057 1.333-1.108 2.234-3.116 2.41-.615.061-1.348.125-2.093.125-1.706 0-3.025-.354-4.016-1.082-.378 1.146-.284 2.186.275 3.025.814 1.22 2.547 1.92 4.756 1.92.998 0 2.066-.142 3.173-.422 4.263-1.064 5.436-4.279 5.144-6.709-.381-3.169-3.291-6.58-8.782-6.58-3.36 0-6.256 1.138-8.155 3.202zm48.5-.325l-.432.436v-2.697l-.139-.002c-2.241 0-4.654 1.275-4.654 4.075V123h4.793v-16.734c0-2.55.565-8.483 5.802-8.483 4.103 0 5.972 3.377 5.972 6.514 0 3.275-2.052 6.59-5.972 6.59-.938 0-3.134-.155-4.371-1.509-.303.916-.265 2.33.415 3.527.592 1.041 1.882 2.305 4.663 2.41.087.003.175.005.263.005 2.48 0 4.953-1.12 6.786-3.075 1.936-2.064 3.002-4.85 3.002-7.847 0-7.156-4.955-11.017-9.617-11.017-2.396 0-4.708.997-6.51 2.806zm-23.784 0l-.435.436v-2.697l-.137-.002c-2.242 0-4.655 1.275-4.655 4.075V123h4.792v-16.734c0-2.55.566-8.483 5.803-8.483 4.104 0 5.973 3.377 5.973 6.514 0 3.275-2.052 6.59-5.973 6.59-.938 0-3.134-.155-4.37-1.509-.303.916-.265 2.329.414 3.525.592 1.043 1.882 2.307 4.664 2.413.086.002.174.004.262.004 2.48 0 4.953-1.12 6.787-3.075 1.936-2.063 3.002-4.85 3.002-7.847 0-7.156-4.955-11.017-9.618-11.017-2.395 0-4.707.997-6.509 2.806zm-46.317 0l-.434.436v-2.697l-.138-.002C144.413 93.924 142 95.2 142 98V123h4.793v-16.734c0-2.55.565-8.483 5.802-8.483 4.103 0 5.972 3.377 5.972 6.514 0 3.275-2.052 6.59-5.972 6.59-.938 0-3.135-.155-4.372-1.509-.302.916-.263 2.33.416 3.527.592 1.041 1.881 2.305 4.665 2.41.085.003.174.005.262.005 2.478 0 4.952-1.12 6.786-3.075 1.936-2.064 3.002-4.85 3.002-7.847 0-7.156-4.956-11.017-9.618-11.017-2.396 0-4.707.997-6.51 2.806zm169.982-2.335c.003 2.123.02 16.675.02 18.398 0 3.988-2.135 6.1-6.347 6.281-.09.003-.18.005-.268.005-2.346 0-5.385-1.013-6.881-3.222-.447 1.968-.185 3.623.782 4.927 1.281 1.728 3.808 2.719 6.932 2.719 6.707 0 10.553-3.798 10.553-10.42V93.853h-4.79zm-13.644 0v13.827c0 2.377.581 4.14 1.778 5.39 1.348 1.398 3.126 2.138 5.139 2.138.166 0 .332-.005.498-.015 2.636-.172 4.187-1.01 4.741-2.561.657-1.96-.109-3.437-.762-4.042-.01.506-.165.942-.466 1.3-.523.625-1.445.955-2.664.955-1.576 0-2.748-1.038-3.217-2.85-.448-1.674-.388-8.37-.35-12.372l.013-1.77h-4.71z" transform="translate(-142 -85)"/>
</svg>
