<svg xmlns="http://www.w3.org/2000/svg" xmlns:xlink="http://www.w3.org/1999/xlink" width="123" height="32" viewBox="0 0 123 32">
  <defs>
    <clipPath id="clip-logo-monochrome">
      <rect width="123" height="32"/>
    </clipPath>
  </defs>
  <g id="logo-monochrome" clip-path="url(#clip-logo-monochrome)">
    <path id="Devfest" d="M1.728,0V-17.184H6.984a8.572,8.572,0,0,1,6.324,2.376A8.383,8.383,0,0,1,15.7-8.592a8.374,8.374,0,0,1-2.388,6.228A8.6,8.6,0,0,1,6.984,0ZM3.936-15.072v12.96H6.984a6.414,6.414,0,0,0,4.728-1.716A6.413,6.413,0,0,0,13.44-8.592a6.422,6.422,0,0,0-1.728-4.752,6.389,6.389,0,0,0-4.728-1.728ZM22.848.384a5.625,5.625,0,0,1-4.272-1.776A6.271,6.271,0,0,1,16.9-5.88a6.388,6.388,0,0,1,1.632-4.476A5.4,5.4,0,0,1,22.7-12.144a5.367,5.367,0,0,1,4.164,1.692,6.766,6.766,0,0,1,1.548,4.74l-.024.24h-9.24A3.832,3.832,0,0,0,20.3-2.688a3.686,3.686,0,0,0,2.64,1.056,3.675,3.675,0,0,0,3.312-2.112l1.968.96a5.866,5.866,0,0,1-2.2,2.328A6.073,6.073,0,0,1,22.848.384ZM19.32-7.3h6.744a2.928,2.928,0,0,0-1-2.028,3.486,3.486,0,0,0-2.412-.8,3.2,3.2,0,0,0-2.148.768A3.668,3.668,0,0,0,19.32-7.3ZM35.9,0H33.7L28.944-11.76h2.4L34.8-2.64h.048l3.5-9.12H40.7ZM47.568-17.376a4.178,4.178,0,0,1,1.968.408l-.6,1.944a2.858,2.858,0,0,0-1.3-.288,1.723,1.723,0,0,0-1.332.564,2.136,2.136,0,0,0-.516,1.5v1.488h3.072v2.016H45.792V0H43.584V-9.744H41.376V-11.76h2.208v-1.7A3.763,3.763,0,0,1,44.7-16.3,3.953,3.953,0,0,1,47.568-17.376ZM55.536.384a5.625,5.625,0,0,1-4.272-1.776,6.271,6.271,0,0,1-1.68-4.488,6.388,6.388,0,0,1,1.632-4.476,5.4,5.4,0,0,1,4.176-1.788,5.367,5.367,0,0,1,4.164,1.692A6.766,6.766,0,0,1,61.1-5.712l-.024.24H51.84a3.832,3.832,0,0,0,1.152,2.784,3.686,3.686,0,0,0,2.64,1.056,3.675,3.675,0,0,0,3.312-2.112l1.968.96a5.866,5.866,0,0,1-2.2,2.328A6.073,6.073,0,0,1,55.536.384ZM52.008-7.3h6.744a2.928,2.928,0,0,0-1-2.028,3.486,3.486,0,0,0-2.412-.8A3.2,3.2,0,0,0,53.2-9.36,3.668,3.668,0,0,0,52.008-7.3ZM72.24-3.264A3.188,3.188,0,0,1,70.9-.672,5.31,5.31,0,0,1,67.512.384a5.372,5.372,0,0,1-3.12-.924,5.094,5.094,0,0,1-1.92-2.436l1.968-.84A3.653,3.653,0,0,0,65.7-2.172a3.063,3.063,0,0,0,1.812.588,3.2,3.2,0,0,0,1.764-.456,1.294,1.294,0,0,0,.708-1.08q0-1.128-1.728-1.656l-2.016-.5q-3.432-.864-3.432-3.312a3.059,3.059,0,0,1,1.308-2.58,5.465,5.465,0,0,1,3.348-.972,5.441,5.441,0,0,1,2.82.744,4.043,4.043,0,0,1,1.764,1.992l-1.968.816a2.478,2.478,0,0,0-1.092-1.164,3.424,3.424,0,0,0-1.692-.42,2.838,2.838,0,0,0-1.548.432,1.244,1.244,0,0,0-.684,1.056q0,1.008,1.9,1.44l1.776.456Q72.24-5.928,72.24-3.264ZM78.7.192A3.356,3.356,0,0,1,76.308-.7a3.3,3.3,0,0,1-.972-2.472V-9.744H73.272V-11.76h2.064v-3.6h2.208v3.6h2.88v2.016h-2.88v5.856A2.148,2.148,0,0,0,78-2.292a1.483,1.483,0,0,0,1.032.42,2.22,2.22,0,0,0,.516-.06,2.677,2.677,0,0,0,.468-.156l.7,1.968A5.929,5.929,0,0,1,78.7.192Z" transform="translate(0 24)" fill="#fff"/>
    <path id="मुंबई" d="M5-11.06l.02-.46H2.06q-1.1,0-1.1-.69t1.1-.69H15.2q1.08,0,1.08.69t-1.08.69H12.84a30.122,30.122,0,0,1-.63,3.34q-.51,2.2-.68,2.97l-.28,1.27q-.11.5-.27,1.15T10.7-1.72q-.12.42-.26.8-.28.78-.5.78a.78.78,0,0,1-.51-.25A.708.708,0,0,1,9.16-.9a6.777,6.777,0,0,1,.15-1.03q.15-.77.43-2.13.36-1.72.6-3.02-1.3.32-4.2.74-.72,4.42-2.7,4.42a2.452,2.452,0,0,1-1.88-1.1A3.394,3.394,0,0,1,.68-5.09a1.642,1.642,0,0,1,1.08-1.5,11.661,11.661,0,0,1,3.06-.87Q5-9.4,5-11.06ZM3.4-3.26q.8,0,1.24-2.82-2.52.44-2.52,1.14a1.85,1.85,0,0,0,.45,1.09Q3.02-3.26,3.4-3.26Zm3.12-8.26v.16a35.016,35.016,0,0,1-.18,3.64l4.26-.7.58-3.1ZM10.14,2.22q0-.88-1.02-.88a1.282,1.282,0,0,0-.78.25,1.037,1.037,0,0,1-.52.25,1.026,1.026,0,0,1-.48-.18q-.3-.18-.3-.34,0-.36.71-.73A3.345,3.345,0,0,1,9.32.22a2.068,2.068,0,0,1,1.45.54,1.788,1.788,0,0,1,.59,1.38,2.375,2.375,0,0,1-1.32,2.12,6.484,6.484,0,0,1-3.34.78,9.329,9.329,0,0,1-3.72-.73q-1.7-.73-1.7-1.33,0-.36.44-.36a2.63,2.63,0,0,1,.88.3,9.592,9.592,0,0,0,4.2.92,5.527,5.527,0,0,0,2.43-.45Q10.14,2.94,10.14,2.22ZM12.5-16.8q.32,0,.74.74a2.646,2.646,0,0,1,.42,1.22q0,.48-.36.48a1.518,1.518,0,0,1-.92-.58,1.6,1.6,0,0,1-.56-.94,1.039,1.039,0,0,1,.21-.64A.591.591,0,0,1,12.5-16.8Zm2.34,3.9h11.7q1.08,0,1.08.69t-1.08.69h-2.4a60.646,60.646,0,0,1-1.5,7.4,16.512,16.512,0,0,1-1,3.3q-.38.68-.62.68a.485.485,0,0,1-.4-.21.771.771,0,0,1-.16-.48,5.709,5.709,0,0,1,.19-1.06,10.528,10.528,0,0,0,.25-1.39,8.519,8.519,0,0,1-2.22,1.35,6.09,6.09,0,0,1-2.38.57q-2.2,0-2.2-2.56a6.832,6.832,0,0,1,.66-2.82,7.362,7.362,0,0,1,1.78-2.47,3.381,3.381,0,0,1,2.25-1.01,2.064,2.064,0,0,1,1.82,1.16,8.743,8.743,0,0,1,1.01,2.88q.18-.78.5-2.5.16-.92.54-2.84H14.84q-1.1,0-1.1-.69T14.84-12.9Zm1.7,5.94a6.264,6.264,0,0,0-.98,2.98q0,1.26.88,1.26a5.65,5.65,0,0,0,2.72-.9A19.539,19.539,0,0,1,16.54-6.96Zm2.02-1.82a1.748,1.748,0,0,0-1.18.68,28.006,28.006,0,0,0,2.64,3.92q.46-.34.78-.62Q19.98-8.78,18.56-8.78Zm13.96-.38.02-2.04v-.32H27.02q-1.08,0-1.08-.69t1.08-.69H31.7a2.808,2.808,0,0,1-1.18-2.3,2.945,2.945,0,0,1,.97-2.27,3.352,3.352,0,0,1,2.35-.89,3.6,3.6,0,0,1,2.28.7,1.9,1.9,0,0,1,.9,1.42q0,.34-.24.34a.96.96,0,0,1-.46-.26,3.215,3.215,0,0,0-2.06-.8,2.545,2.545,0,0,0-1.67.49A1.534,1.534,0,0,0,32-15.24a1.919,1.919,0,0,0,.32,1.17,2.894,2.894,0,0,0,.89.76,5.167,5.167,0,0,1,.65.41H36.3q1.1,0,1.1.69t-1.1.69H33.9a4.136,4.136,0,0,1,.1,1.07,9,9,0,0,1-.2,1.73q-.24,1.22-.72,1.22a1.7,1.7,0,0,1-.62-.26,5.593,5.593,0,0,0-2.64-.74q-.68,0-.68.36,0,.66,1.66,1.66.68.4,1.37.87a4.568,4.568,0,0,1,1.17,1.15A2.484,2.484,0,0,1,33.82-3q0,1.8-2.56,2.34.16.38.38.91t.38.9q.16.37.32.77a3.386,3.386,0,0,1,.32,1.04q0,.44-.42.44-.48,0-1.04-1.12A21.94,21.94,0,0,1,29.96-.48q-.24.02-.72.02a5.6,5.6,0,0,1-3.04-.78,2.366,2.366,0,0,1-1.24-2.08,1.756,1.756,0,0,1,.65-1.42,2.621,2.621,0,0,1,1.73-.54,2.5,2.5,0,0,1,1.9.9,8.689,8.689,0,0,1,1.48,2.44q1.58-.34,1.58-1.2a1.731,1.731,0,0,0-.76-1.24,9.968,9.968,0,0,0-1.66-1.13,6.839,6.839,0,0,1-1.66-1.28,2.3,2.3,0,0,1-.76-1.57q0-1.54,2.16-1.54A6.052,6.052,0,0,1,32.52-9.16ZM29.28-1.8h.12a6.257,6.257,0,0,0-.99-1.62,1.564,1.564,0,0,0-1.19-.56q-.9,0-.9.78a1.145,1.145,0,0,0,.81,1.03A5.236,5.236,0,0,0,29.28-1.8Z" transform="translate(86 21)" fill="#2d98ff"/>
  </g>
</svg>
