<svg xmlns="http://www.w3.org/2000/svg" xmlns:xlink="http://www.w3.org/1999/xlink" width="536" height="128" viewBox="0 0 536 128">
  <defs>
    <clipPath id="clip-Artboard_1">
      <rect width="536" height="128"/>
    </clipPath>
  </defs>
  <g id="Artboard_1" data-name="Artboard – 1" clip-path="url(#clip-Artboard_1)">
    <path id="Path_3" data-name="Path 3" d="M6.336,8.663V-62.912H28.228q16.394,0,26.341,9.9t9.947,25.891q0,16.094-9.947,25.941T28.228,8.663Zm9.2-62.778V-.134h12.7q12.5,0,19.693-7.147t7.2-19.843q0-12.6-7.2-19.793t-19.693-7.2ZM94.305,10.262a23.43,23.43,0,0,1-17.794-7.4q-7-7.4-7-18.693,0-11.2,6.8-18.643A22.5,22.5,0,0,1,93.705-41.92q10.9,0,17.344,7.048T117.5-15.129l-.1,1H78.911a15.96,15.96,0,0,0,4.8,11.6,15.352,15.352,0,0,0,11,4.4q8.8,0,13.8-8.8l8.2,4a24.433,24.433,0,0,1-9.147,9.7A25.3,25.3,0,0,1,94.305,10.262ZM79.61-21.727H107.7a12.2,12.2,0,0,0-4.149-8.447Q99.8-33.523,93.505-33.523a13.331,13.331,0,0,0-8.947,3.2A15.278,15.278,0,0,0,79.61-21.727ZM148.686,8.663h-9.2L119.7-40.32h10L144.088-2.334h.2L158.882-40.32h9.8Zm48.583-72.375a17.4,17.4,0,0,1,8.2,1.7l-2.5,8.1a11.9,11.9,0,0,0-5.4-1.2,7.177,7.177,0,0,0-5.548,2.349,8.9,8.9,0,0,0-2.149,6.248v6.2h12.8v8.4h-12.8V8.663h-9.2V-31.923h-9.2v-8.4h9.2v-7.1a15.672,15.672,0,0,1,4.648-11.8A16.465,16.465,0,0,1,197.269-63.712Zm33.188,73.974a23.43,23.43,0,0,1-17.794-7.4q-7-7.4-7-18.693,0-11.2,6.8-18.643a22.5,22.5,0,0,1,17.394-7.447q10.9,0,17.344,7.048t6.448,19.743l-.1,1H215.063a15.96,15.96,0,0,0,4.8,11.6,15.352,15.352,0,0,0,11,4.4q8.8,0,13.8-8.8l8.2,4a24.433,24.433,0,0,1-9.147,9.7A25.3,25.3,0,0,1,230.457,10.262ZM215.762-21.727h28.09a12.2,12.2,0,0,0-4.149-8.447q-3.749-3.349-10.046-3.349a13.331,13.331,0,0,0-8.947,3.2A15.278,15.278,0,0,0,215.762-21.727Zm84.27,16.794q0,6.4-5.6,10.8t-14.1,4.4a22.376,22.376,0,0,1-13-3.849,21.22,21.22,0,0,1-8-10.146l8.2-3.5a15.215,15.215,0,0,0,5.248,6.848,12.758,12.758,0,0,0,7.547,2.449,13.307,13.307,0,0,0,7.347-1.9q2.949-1.9,2.949-4.5,0-4.7-7.2-6.9l-8.4-2.1q-14.295-3.6-14.295-13.8a12.74,12.74,0,0,1,5.448-10.746q5.448-4.049,13.945-4.049a22.665,22.665,0,0,1,11.746,3.1,16.841,16.841,0,0,1,7.347,8.3l-8.2,3.4a10.32,10.32,0,0,0-4.548-4.848,14.264,14.264,0,0,0-7.048-1.749,11.819,11.819,0,0,0-6.448,1.8q-2.849,1.8-2.849,4.4,0,4.2,7.9,6l7.4,1.9Q300.033-16.029,300.033-4.933ZM326.923,9.462a13.979,13.979,0,0,1-9.947-3.7q-3.949-3.7-4.049-10.3v-27.39h-8.6v-8.4h8.6V-55.315h9.2V-40.32h12v8.4h-12V-7.532q0,4.9,1.9,6.648a6.177,6.177,0,0,0,4.3,1.749,9.247,9.247,0,0,0,2.149-.25,11.148,11.148,0,0,0,1.949-.65l2.9,8.2A24.7,24.7,0,0,1,326.923,9.462Z" transform="translate(-2.45 97.154)" fill="#fff"/>
    <path id="Path_4" data-name="Path 4" d="M22.349-40.27l.091-2.09H8.991q-5,0-5-3.135t5-3.135H68.7q4.907,0,4.907,3.135T68.7-42.36H57.973a136.868,136.868,0,0,1-2.863,15.176q-2.317,10-3.09,13.5T50.749-7.918q-.5,2.272-1.227,5.225T48.249,2.17Q47.7,4.078,47.068,5.8,45.8,9.349,44.8,9.349a3.542,3.542,0,0,1-2.317-1.136A3.218,3.218,0,0,1,41.252,5.9a30.8,30.8,0,0,1,.682-4.68q.682-3.5,1.954-9.678,1.636-7.815,2.726-13.722-5.907,1.454-19.084,3.362Q24.258,1.261,15.261,1.261q-4.544,0-8.542-5t-4-9.406q0-4.408,4.907-6.816t13.9-3.953Q22.349-32.727,22.349-40.27ZM15.079-4.828q3.635,0,5.634-12.814-11.451,2-11.451,5.18a8.4,8.4,0,0,0,2.045,4.953Q13.353-4.828,15.079-4.828ZM29.256-42.36v.727a159.106,159.106,0,0,1-.818,16.54L47.8-28.274q2.363-12.632,2.635-14.086ZM45.7,20.073q0-4-4.635-4a5.827,5.827,0,0,0-3.544,1.136,4.714,4.714,0,0,1-2.363,1.136,4.661,4.661,0,0,1-2.181-.818q-1.363-.818-1.363-1.545,0-1.636,3.226-3.317a15.2,15.2,0,0,1,7.134-1.681,9.4,9.4,0,0,1,6.589,2.454,8.122,8.122,0,0,1,2.681,6.271q0,6.089-6,9.633T30.074,32.886a42.39,42.39,0,0,1-16.9-3.317q-7.725-3.317-7.725-6.043,0-1.636,2-1.636a11.951,11.951,0,0,1,4,1.363,43.585,43.585,0,0,0,19.084,4.18q6.907,0,11.042-2.045T45.7,20.073ZM56.428-66.352q1.454,0,3.362,3.362A12.023,12.023,0,0,1,61.7-57.446q0,2.181-1.636,2.181T55.883-57.9q-2.545-2.635-2.545-4.271a4.719,4.719,0,0,1,.954-2.908A2.687,2.687,0,0,1,56.428-66.352ZM67.061-48.631h53.163q4.907,0,4.907,3.135t-4.907,3.135H109.319q-.727,8.633-6.816,33.625-2.817,11.9-4.544,14.995t-2.817,3.09a2.2,2.2,0,0,1-1.818-.954A3.5,3.5,0,0,1,92.6,6.214,25.941,25.941,0,0,1,93.461,1.4,47.837,47.837,0,0,0,94.6-4.919,38.708,38.708,0,0,1,84.509,1.216,27.671,27.671,0,0,1,73.7,3.806q-10,0-10-11.632a31.042,31.042,0,0,1,3-12.814,33.45,33.45,0,0,1,8.088-11.223q5.089-4.589,10.224-4.589t8.27,5.271A39.725,39.725,0,0,1,97.868-18.1q.818-3.544,2.272-11.36.727-4.18,2.454-12.9H67.061q-5,0-5-3.135T67.061-48.631ZM74.786-21.64Q70.333-13.825,70.333-8.1t4,5.725q5.271,0,12.359-4.089A88.78,88.78,0,0,1,74.786-21.64Zm9.179-8.27q-2.454,0-5.362,3.09a127.256,127.256,0,0,0,12,17.812q2.09-1.545,3.544-2.817Q90.416-29.91,83.964-29.91ZM147.4-31.637l.091-9.269V-42.36H122.405q-4.907,0-4.907-3.135t4.907-3.135H143.67a12.759,12.759,0,0,1-5.362-10.451A13.38,13.38,0,0,1,142.716-69.4a15.229,15.229,0,0,1,10.678-4.044,16.372,16.372,0,0,1,10.36,3.181q4.09,3.181,4.089,6.452,0,1.545-1.091,1.545a4.36,4.36,0,0,1-2.09-1.181,14.607,14.607,0,0,0-9.36-3.635q-4.907,0-7.588,2.226a6.968,6.968,0,0,0-2.681,5.589,8.719,8.719,0,0,0,1.454,5.316,13.152,13.152,0,0,0,4.044,3.453,23.48,23.48,0,0,1,2.954,1.863h11.087q5,0,5,3.135t-5,3.135H153.667a18.8,18.8,0,0,1,.454,4.862,40.906,40.906,0,0,1-.909,7.861q-1.091,5.544-3.272,5.544a7.727,7.727,0,0,1-2.817-1.181,25.416,25.416,0,0,0-12-3.362q-3.09,0-3.09,1.636,0,3,7.543,7.543,3.09,1.818,6.225,3.953a20.759,20.759,0,0,1,5.316,5.225A11.288,11.288,0,0,1,153.3-3.646q0,8.179-11.632,10.633.727,1.727,1.727,4.135t1.727,4.089q.727,1.681,1.454,3.5a15.385,15.385,0,0,1,1.454,4.726q0,2-1.908,2-2.181,0-4.726-5.089A99.688,99.688,0,0,1,135.764,7.8q-1.091.091-3.272.091a25.446,25.446,0,0,1-13.813-3.544Q113.045.807,113.045-5.1A7.979,7.979,0,0,1,116-11.553a11.908,11.908,0,0,1,7.861-2.454,11.373,11.373,0,0,1,8.633,4.089A39.483,39.483,0,0,1,139.217,1.17Q146.4-.375,146.4-4.283q0-2.726-3.453-5.634a45.3,45.3,0,0,0-7.543-5.135,31.075,31.075,0,0,1-7.543-5.816Q124.4-24.457,124.4-28q0-7,9.815-7A27.5,27.5,0,0,1,147.4-31.637ZM132.674,1.806h.545a28.432,28.432,0,0,0-4.5-7.361A7.109,7.109,0,0,0,123.314-8.1q-4.089,0-4.089,3.544,0,3,3.681,4.68A23.79,23.79,0,0,0,132.674,1.806Z" transform="translate(362.839 84.472)" fill="#2d98ff"/>
  </g>
</svg>
